<?xml version="1.0" encoding="UTF-8" standalone="no"?>
<!DOCTYPE svg PUBLIC "-//W3C//DTD SVG 1.1//EN" "http://www.w3.org/Graphics/SVG/1.1/DTD/svg11.dtd">
<!-- Generated by Microsoft Visio, SVG Export FET onoff.svg Page-1 -->
<svg xmlns="http://www.w3.org/2000/svg" xmlns:xlink="http://www.w3.org/1999/xlink" xmlns:ev="http://www.w3.org/2001/xml-events"
		xmlns:v="http://schemas.microsoft.com/visio/2003/SVGExtensions/" width="7.50099in" height="1.97499in"
		viewBox="0 0 540.071 142.2" xml:space="preserve" color-interpolation-filters="sRGB" class="st23">
	<v:documentProperties v:langID="1033" v:viewMarkup="false">
		<v:userDefs>
			<v:ud v:nameU="msvConvertTheme"/>
		</v:userDefs>
	</v:documentProperties>

	<style type="text/css">
	<![CDATA[
		.st1 {fill:url(#grad0-4);stroke:none;stroke-linecap:round;stroke-linejoin:round;stroke-width:0.24}
		.st2 {fill:#99f7b5;stroke:#000000;stroke-dasharray:0,0.72;stroke-linecap:round;stroke-linejoin:round;stroke-width:0.24}
		.st3 {fill:#000000;font-family:Arial;font-size:0.666664em}
		.st4 {fill:#ff0000;stroke:none;stroke-linecap:round;stroke-linejoin:round;stroke-width:0.24}
		.st5 {fill:#0000ff;fill-opacity:0.55;stroke:none;stroke-linecap:round;stroke-linejoin:round;stroke-width:0.24}
		.st6 {fill:#4a4aff;stroke:none;stroke-linecap:round;stroke-linejoin:round;stroke-width:0.24}
		.st7 {stroke:none;stroke-linecap:round;stroke-linejoin:round;stroke-width:0.75}
		.st8 {fill:#000000;font-family:Arial;font-size:0.75em}
		.st9 {font-size:1em}
		.st10 {marker-end:url(#mrkr4-88);stroke:#000000;stroke-linecap:round;stroke-linejoin:round;stroke-width:0.72}
		.st11 {fill:#000000;fill-opacity:1;stroke:#000000;stroke-opacity:1;stroke-width:0.22222222222222}
		.st12 {stroke:#000000;stroke-linecap:round;stroke-linejoin:round;stroke-width:0.748115}
		.st13 {fill:#ffffff;stroke:#000000;stroke-linecap:round;stroke-linejoin:round;stroke-width:0.72}
		.st14 {stroke:#000000;stroke-linecap:round;stroke-linejoin:round;stroke-width:0.72}
		.st15 {fill:none;stroke:none;stroke-linecap:round;stroke-linejoin:round;stroke-width:0.72}
		.st16 {fill:#000000;font-family:Arial;font-size:0.833336em}
		.st17 {fill:#99f7b5;stroke:none;stroke-linecap:round;stroke-linejoin:round;stroke-width:0.24}
		.st18 {fill:#000000;font-family:Arial;font-size:0.833336em;font-weight:bold}
		.st19 {fill:#000000;fill-opacity:0.7;stroke:#000000;stroke-linecap:round;stroke-linejoin:round;stroke-opacity:0.65;stroke-width:1.2}
		.st20 {stroke:#000000;stroke-linecap:round;stroke-linejoin:round;stroke-opacity:0.65;stroke-width:1.2}
		.st21 {marker-end:url(#mrkr4-416);stroke:#000000;stroke-linecap:round;stroke-linejoin:round;stroke-width:1.2}
		.st22 {fill:#000000;fill-opacity:1;stroke:#000000;stroke-opacity:1;stroke-width:0.32258064516129}
		.st23 {fill:none;fill-rule:evenodd;font-size:12px;overflow:visible;stroke-linecap:square;stroke-miterlimit:3}
	]]>
	</style>

	<defs id="Patterns_And_Gradients">
		<linearGradient id="grad0-4" x1="0" y1="0" x2="1" y2="0" gradientTransform="rotate(270 0.5 0.5)">
			<stop offset="0" stop-color="#a4af6d" stop-opacity="1"/>
			<stop offset="1" stop-color="#d8ddc1" stop-opacity="1"/>
		</linearGradient>
	</defs>
	<defs id="Markers">
		<g id="lend4">
			<path d="M 2 1 L 0 0 L 2 -1 L 2 1 " style="stroke:none"/>
		</g>
		<marker id="mrkr4-88" class="st11" v:arrowType="4" v:arrowSize="2" v:setback="8.5" refX="-8.5" orient="auto"
				markerUnits="strokeWidth" overflow="visible">
			<use xlink:href="#lend4" transform="scale(-4.5,-4.5) "/>
		</marker>
		<marker id="mrkr4-416" class="st22" v:arrowType="4" v:arrowSize="2" v:setback="6.2" refX="-6.2" orient="auto"
				markerUnits="strokeWidth" overflow="visible">
			<use xlink:href="#lend4" transform="scale(-3.1,-3.1) "/>
		</marker>
	</defs>
	<g v:mID="0" v:index="1" v:groupContext="foregroundPage">
		<title>Page-1</title>
		<v:pageProperties v:drawingScale="1" v:pageScale="1" v:drawingUnits="19" v:shadowOffsetX="9" v:shadowOffsetY="-9"/>
		<v:layer v:name="Connector" v:index="0"/>
		<g id="shape1-1" v:mID="1" v:groupContext="shape" transform="translate(27.0714,-35.3246)">
			<title>Rectangle.237</title>
			<rect x="0" y="115.2" width="184.5" height="27" class="st1"/>
		</g>
		<g id="shape2-5" v:mID="2" v:groupContext="shape" transform="translate(153.071,-44.3246)">
			<title>Sheet.2</title>
			<path d="M-0 124.2 A18 18 -180 0 0 18 142.2 A18 18 -180 0 0 36 124.2 L0 124.2 Z" class="st2"/>
		</g>
		<g id="shape3-7" v:mID="3" v:groupContext="shape" transform="translate(72.0714,-44.3246)">
			<title>Sheet.3</title>
			<desc>-</desc>
			<v:textBlock v:margins="rect(4,4,4,4)"/>
			<v:textRect cx="18" cy="133.2" width="36" height="18"/>
			<path d="M-0 124.2 A18 18 -180 0 0 18 142.2 A18 18 -180 0 0 36 124.2 L0 124.2 Z" class="st2"/>
			<text x="16.67" y="135.6" class="st3" v:langID="1033"><v:paragraph v:horizAlign="1"/><v:tabList/>-</text>		</g>
		<g id="shape176-10" v:mID="176" v:groupContext="shape" transform="translate(108.071,-62.3246)">
			<title>Rectangle.240</title>
			<rect x="0" y="139.387" width="45" height="2.8125" class="st4"/>
		</g>
		<g id="shape177-12" v:mID="177" v:groupContext="shape" transform="translate(108.071,-64.2934)">
			<title>Rectangle.241</title>
			<rect x="0" y="130.668" width="45" height="11.5313" class="st5"/>
		</g>
		<g id="shape178-14" v:mID="178" v:groupContext="shape" transform="translate(166.571,-62.3246)">
			<title>Rectangle.242</title>
			<rect x="0" y="137.137" width="40.5" height="5.0625" class="st6"/>
		</g>
		<g id="shape179-16" v:mID="179" v:groupContext="shape" transform="translate(40.5714,-62.3246)">
			<title>Rectangle.243</title>
			<rect x="0" y="137.137" width="54" height="5.0625" class="st6"/>
		</g>
		<g id="shape180-18" v:mID="180" v:groupContext="shape" transform="translate(67.5714,-53.3246)">
			<title>Sheet.180</title>
			<desc>-</desc>
			<v:textBlock v:margins="rect(0,0,0,0)"/>
			<v:textRect cx="11.25" cy="139.95" width="22.5" height="4.5"/>
			<path d="M22.5 137.7 L0 137.7 L0 142.2 L22.5 142.2 L22.5 137.7" class="st7"/>
			<text x="9.75" y="142.65" class="st8" v:langID="1033"><v:paragraph v:horizAlign="1"/><v:tabList/>-</text>		</g>
		<g id="shape181-22" v:mID="181" v:groupContext="shape" transform="translate(74.3214,-46.5746)">
			<title>Sheet.181</title>
			<desc>-</desc>
			<v:textBlock v:margins="rect(0,0,0,0)"/>
			<v:textRect cx="11.25" cy="139.95" width="22.5" height="4.5"/>
			<path d="M22.5 137.7 L0 137.7 L0 142.2 L22.5 142.2 L22.5 137.7" class="st7"/>
			<text x="9.75" y="142.65" class="st8" v:langID="1033"><v:paragraph v:horizAlign="1"/><v:tabList/>-</text>		</g>
		<g id="shape182-26" v:mID="182" v:groupContext="shape" transform="translate(85.5714,-55.5746)">
			<title>Sheet.182</title>
			<desc>-</desc>
			<v:textBlock v:margins="rect(0,0,0,0)"/>
			<v:textRect cx="11.25" cy="139.95" width="22.5" height="4.5"/>
			<path d="M22.5 137.7 L0 137.7 L0 142.2 L22.5 142.2 L22.5 137.7" class="st7"/>
			<text x="9.75" y="142.65" class="st8" v:langID="1033"><v:paragraph v:horizAlign="1"/><v:tabList/>-</text>		</g>
		<g id="shape183-30" v:mID="183" v:groupContext="shape" transform="translate(87.8214,-51.0746)">
			<title>Sheet.183</title>
			<desc>-</desc>
			<v:textBlock v:margins="rect(0,0,0,0)"/>
			<v:textRect cx="11.25" cy="139.95" width="22.5" height="4.5"/>
			<path d="M22.5 137.7 L0 137.7 L0 142.2 L22.5 142.2 L22.5 137.7" class="st7"/>
			<text x="9.75" y="142.65" class="st8" v:langID="1033"><v:paragraph v:horizAlign="1"/><v:tabList/>-</text>		</g>
		<g id="shape184-34" v:mID="184" v:groupContext="shape" transform="translate(73.1964,-55.5746)">
			<title>Sheet.184</title>
			<desc>-</desc>
			<v:textBlock v:margins="rect(0,0,0,0)"/>
			<v:textRect cx="11.25" cy="139.95" width="22.5" height="4.5"/>
			<path d="M22.5 137.7 L0 137.7 L0 142.2 L22.5 142.2 L22.5 137.7" class="st7"/>
			<text x="9.75" y="142.65" class="st8" v:langID="1033"><v:paragraph v:horizAlign="1"/><v:tabList/>-</text>		</g>
		<g id="shape185-38" v:mID="185" v:groupContext="shape" transform="translate(148.571,-55.5746)">
			<title>Sheet.185</title>
			<desc>-</desc>
			<v:textBlock v:margins="rect(0,0,0,0)"/>
			<v:textRect cx="11.25" cy="139.95" width="22.5" height="4.5"/>
			<path d="M22.5 137.7 L0 137.7 L0 142.2 L22.5 142.2 L22.5 137.7" class="st7"/>
			<text x="9.75" y="142.65" class="st8" v:langID="1033"><v:paragraph v:horizAlign="1"/><v:tabList/>-</text>		</g>
		<g id="shape186-42" v:mID="186" v:groupContext="shape" transform="translate(153.071,-49.9496)">
			<title>Sheet.186</title>
			<desc>-</desc>
			<v:textBlock v:margins="rect(0,0,0,0)"/>
			<v:textRect cx="11.25" cy="139.95" width="22.5" height="4.5"/>
			<path d="M22.5 137.7 L0 137.7 L0 142.2 L22.5 142.2 L22.5 137.7" class="st7"/>
			<text x="9.75" y="142.65" class="st8" v:langID="1033"><v:paragraph v:horizAlign="1"/><v:tabList/>-</text>		</g>
		<g id="shape187-46" v:mID="187" v:groupContext="shape" transform="translate(159.821,-54.4496)">
			<title>Sheet.187</title>
			<desc>-</desc>
			<v:textBlock v:margins="rect(0,0,0,0)"/>
			<v:textRect cx="11.25" cy="139.95" width="22.5" height="4.5"/>
			<path d="M22.5 137.7 L0 137.7 L0 142.2 L22.5 142.2 L22.5 137.7" class="st7"/>
			<text x="9.75" y="142.65" class="st8" v:langID="1033"><v:paragraph v:horizAlign="1"/><v:tabList/>-</text>		</g>
		<g id="shape188-50" v:mID="188" v:groupContext="shape" transform="translate(169.946,-56.6996)">
			<title>Sheet.188</title>
			<desc>-</desc>
			<v:textBlock v:margins="rect(0,0,0,0)"/>
			<v:textRect cx="11.25" cy="139.95" width="22.5" height="4.5"/>
			<path d="M22.5 137.7 L0 137.7 L0 142.2 L22.5 142.2 L22.5 137.7" class="st7"/>
			<text x="9.75" y="142.65" class="st8" v:langID="1033"><v:paragraph v:horizAlign="1"/><v:tabList/>-</text>		</g>
		<g id="shape189-54" v:mID="189" v:groupContext="shape" transform="translate(166.571,-48.8246)">
			<title>Sheet.189</title>
			<desc>-</desc>
			<v:textBlock v:margins="rect(0,0,0,0)"/>
			<v:textRect cx="11.25" cy="139.95" width="22.5" height="4.5"/>
			<path d="M22.5 137.7 L0 137.7 L0 142.2 L22.5 142.2 L22.5 137.7" class="st7"/>
			<text x="9.75" y="142.65" class="st8" v:langID="1033"><v:paragraph v:horizAlign="1"/><v:tabList/>-</text>		</g>
		<g id="shape190-58" v:mID="190" v:groupContext="shape" transform="translate(18.0714,-8.32462)">
			<title>Sheet.190</title>
			<desc>With the gate held at Vdd, positive charges accumulate on the...</desc>
			<v:textBlock v:margins="rect(0,0,0,0)"/>
			<v:textRect cx="103.5" cy="134.325" width="207" height="15.75"/>
			<path d="M207 126.45 L0 126.45 L0 142.2 L207 142.2 L207 126.45" class="st7"/>
			<text x="17.95" y="126.22" class="st8" v:langID="1033"><v:paragraph v:horizAlign="1"/><v:tabList/>With the gate held at Vdd, positive charges <tspan
						x="0.69" dy="1.2em" class="st9">accumulate on the gate and draw negative particles </tspan><tspan x="11.94"
						dy="1.2em" class="st9">into the channel forming a conductive channel</tspan></text>		</g>
		<g id="shape191-64" v:mID="191" v:groupContext="shape" transform="translate(126.071,-78.0746)">
			<title>Sheet.191</title>
			<desc>gate</desc>
			<v:textBlock v:margins="rect(0,0,0,0)"/>
			<v:textRect cx="22.5" cy="137.7" width="45" height="9"/>
			<path d="M45 133.2 L0 133.2 L0 142.2 L45 142.2 L45 133.2" class="st7"/>
			<text x="13.74" y="140.4" class="st8" v:langID="1033"><v:paragraph v:horizAlign="1"/><v:tabList/>gate</text>		</g>
		<g id="shape192-68" v:mID="192" v:groupContext="shape" transform="translate(38.3214,-69.0746)">
			<title>Sheet.192</title>
			<desc>source</desc>
			<v:textBlock v:margins="rect(0,0,0,0)"/>
			<v:textRect cx="31.5" cy="137.7" width="63" height="9"/>
			<path d="M63 133.2 L0 133.2 L0 142.2 L63 142.2 L63 133.2" class="st7"/>
			<text x="17.99" y="140.4" class="st8" v:langID="1033"><v:paragraph v:horizAlign="1"/><v:tabList/>source</text>		</g>
		<g id="shape193-72" v:mID="193" v:groupContext="shape" transform="translate(153.071,-71.3246)">
			<title>Sheet.193</title>
			<desc>drain</desc>
			<v:textBlock v:margins="rect(0,0,0,0)"/>
			<v:textRect cx="31.5" cy="137.7" width="63" height="9"/>
			<path d="M63 133.2 L0 133.2 L0 142.2 L63 142.2 L63 133.2" class="st7"/>
			<text x="21.49" y="140.4" class="st8" v:langID="1033"><v:paragraph v:horizAlign="1"/><v:tabList/>drain</text>		</g>
		<g id="shape194-76" v:mID="194" v:groupContext="shape" transform="translate(30.4464,-80.3246)">
			<title>Sheet.194</title>
			<desc>To GND</desc>
			<v:textBlock v:margins="rect(0,0,0,0)"/>
			<v:textRect cx="10.6875" cy="137.7" width="21.38" height="9"/>
			<path d="M21.37 133.2 L0 133.2 L0 142.2 L21.37 142.2 L21.37 133.2" class="st7"/>
			<text x="0" y="135" class="st8" v:langID="1033"><v:paragraph/><v:tabList/>To<v:newlineChar/><tspan x="0" dy="1.2em"
						class="st9">GND</tspan></text>		</g>
		<g id="shape195-81" v:mID="195" v:groupContext="shape" transform="translate(27.0714,-62.3246)">
			<title>Rectangle.260</title>
			<rect x="0" y="133.2" width="18" height="9" class="st6"/>
		</g>
		<g id="shape196-83" v:mID="196" v:groupContext="shape" v:layerMember="0"
				transform="translate(-115.128,57.375) rotate(-90) scale(-1,1)">
			<title>Line-curve connector.267</title>
			<v:userDefs>
				<v:ud v:nameU="AntiScale" v:val="VT0(1):26"/>
				<v:ud v:nameU="Scale" v:val="VT0(1):26"/>
				<v:ud v:nameU="visVersion" v:val="VT0(11):26"/>
			</v:userDefs>
			<path d="M0 142.2 L3.25 138.6 L6.3 136.26 L9.16 135.2 L11.83 135.41 L14.3 136.88 L14.5 137.18" class="st10"/>
		</g>
		<g id="shape242-89" v:mID="242" v:groupContext="shape" transform="translate(130.571,-75.8246)">
			<title>Sheet.242</title>
			<path d="M0 142.2 L0 119.7" class="st12"/>
		</g>
		<g id="shape243-92" v:mID="243" v:groupContext="shape" transform="translate(132.821,-98.3246) scale(-1,1)">
			<title>Circle.243</title>
			<path d="M0 139.95 A2.25 2.25 0 0 1 4.5 139.95 A2.25 2.25 0 1 1 0 139.95 Z" class="st13"/>
		</g>
		<g id="shape244-94" v:mID="244" v:groupContext="shape" transform="translate(168.821,163.575) rotate(180)">
			<title>Sheet.244</title>
			<path d="M0 142.2 L13.5 142.2" class="st14"/>
		</g>
		<g id="shape245-97" v:mID="245" v:groupContext="shape" transform="translate(147.491,-123.075)">
			<title>Sheet.245</title>
			<desc>Vdd</desc>
			<v:textBlock v:margins="rect(4,4,4,4)" v:tabSpace="42.5197"/>
			<v:textRect cx="16.83" cy="137.7" width="33.66" height="9"/>
			<rect x="0" y="133.2" width="33.66" height="9" class="st15"/>
			<text x="4" y="140.7" class="st16" v:langID="1033"><v:paragraph/><v:tabList/>Vdd</text>		</g>
		<g id="shape246-100" v:mID="246" v:groupContext="shape" transform="translate(94.5714,-107.325)">
			<title>Sheet.246</title>
			<path d="M0 142.2 L9 142.2" class="st14"/>
		</g>
		<g id="shape247-103" v:mID="247" v:groupContext="shape" transform="translate(-19.2458,120.503) rotate(-123.69)">
			<title>Sheet.247</title>
			<path d="M0 142.2 L8.11 142.2" class="st14"/>
		</g>
		<g id="shape248-106" v:mID="248" v:groupContext="shape" transform="translate(-19.2458,-37.2532) rotate(-56.3099)">
			<title>Sheet.248</title>
			<path d="M0 142.2 L8.11 142.2" class="st14"/>
		</g>
		<g id="shape249-109" v:mID="249" v:groupContext="shape" transform="translate(65.3214,-98.3246)">
			<title>Sheet.249</title>
			<desc>GND</desc>
			<v:textBlock v:margins="rect(4,4,4,4)" v:tabSpace="42.5197"/>
			<v:textRect cx="16.875" cy="137.7" width="33.75" height="9"/>
			<rect x="0" y="133.2" width="33.75" height="9" class="st15"/>
			<text x="4" y="140.7" class="st16" v:langID="1033"><v:paragraph/><v:tabList/>GND</text>		</g>
		<g id="shape250-112" v:mID="250" v:groupContext="shape" transform="translate(-43.0607,34.875) rotate(-90)">
			<title>Sheet.250</title>
			<path d="M0 142.2 L4.52 142.2" class="st14"/>
		</g>
		<g id="shape252-115" v:mID="252" v:groupContext="shape" transform="translate(121.571,-109.575) scale(-1,1)">
			<title>Circle.252</title>
			<path d="M0 139.95 A2.25 2.25 0 0 1 4.5 139.95 A2.25 2.25 0 1 1 0 139.95 Z" class="st13"/>
		</g>
		<g id="shape251-117" v:mID="251" v:groupContext="shape" transform="translate(99.0714,-111.825)">
			<title>Sheet.251</title>
			<path d="M0 142.2 L18 142.2" class="st12"/>
		</g>
		<g id="shape253-120" v:mID="253" v:groupContext="shape" transform="translate(144.071,-111.825)">
			<title>Sheet.253</title>
			<path d="M0 142.2 L18 142.2" class="st12"/>
		</g>
		<g id="shape254-123" v:mID="254" v:groupContext="shape" transform="translate(144.071,-109.575) scale(-1,1)">
			<title>Circle.254</title>
			<path d="M0 139.95 A2.25 2.25 0 0 1 4.5 139.95 A2.25 2.25 0 1 1 0 139.95 Z" class="st13"/>
		</g>
		<g id="shape255-125" v:mID="255" v:groupContext="shape" transform="translate(162.071,-111.825)">
			<title>Sheet.255</title>
			<path d="M0 142.2 L0 133.2" class="st12"/>
		</g>
		<g id="shape256-128" v:mID="256" v:groupContext="shape" transform="translate(130.571,-102.825)">
			<title>Sheet.256</title>
			<path d="M11.25 128.7 L0 142.2" class="st12"/>
		</g>
		<g id="shape257-131" v:mID="257" v:groupContext="shape" transform="translate(101.321,-48.8246)">
			<title>Sheet.257</title>
			<path d="M2.66 128.7 L55.84 128.7 A2.65909 13.5 -180 0 0 58.5 142.2 A29.25 5.78571 -180 0 0 29.25 136.41 A29.25 5.78571
						 -180 0 0 -0 142.2 A2.65909 13.5 -180 0 0 2.66 128.7 Z" class="st17"/>
		</g>
		<g id="shape199-133" v:mID="199" v:groupContext="shape" transform="translate(139.571,-55.5746)">
			<title>Sheet.199</title>
			<desc>-</desc>
			<v:textBlock v:margins="rect(0,0,0,0)"/>
			<v:textRect cx="11.25" cy="139.95" width="22.5" height="4.5"/>
			<path d="M22.5 137.7 L0 137.7 L0 142.2 L22.5 142.2 L22.5 137.7" class="st7"/>
			<text x="9.75" y="142.65" class="st8" v:langID="1033"><v:paragraph v:horizAlign="1"/><v:tabList/>-</text>		</g>
		<g id="shape258-137" v:mID="258" v:groupContext="shape" transform="translate(121.571,-55.5746)">
			<title>Sheet.258</title>
			<desc>-</desc>
			<v:textBlock v:margins="rect(0,0,0,0)"/>
			<v:textRect cx="11.25" cy="139.95" width="22.5" height="4.5"/>
			<path d="M22.5 137.7 L0 137.7 L0 142.2 L22.5 142.2 L22.5 137.7" class="st7"/>
			<text x="9.75" y="142.65" class="st8" v:langID="1033"><v:paragraph v:horizAlign="1"/><v:tabList/>-</text>		</g>
		<g id="shape259-141" v:mID="259" v:groupContext="shape" transform="translate(112.571,-57.8246)">
			<title>Sheet.259</title>
			<desc>-</desc>
			<v:textBlock v:margins="rect(0,0,0,0)"/>
			<v:textRect cx="11.25" cy="139.95" width="22.5" height="4.5"/>
			<path d="M22.5 137.7 L0 137.7 L0 142.2 L22.5 142.2 L22.5 137.7" class="st7"/>
			<text x="9.75" y="142.65" class="st8" v:langID="1033"><v:paragraph v:horizAlign="1"/><v:tabList/>-</text>		</g>
		<g id="shape260-145" v:mID="260" v:groupContext="shape" transform="translate(103.571,-55.5746)">
			<title>Sheet.260</title>
			<desc>-</desc>
			<v:textBlock v:margins="rect(0,0,0,0)"/>
			<v:textRect cx="11.25" cy="139.95" width="22.5" height="4.5"/>
			<path d="M22.5 137.7 L0 137.7 L0 142.2 L22.5 142.2 L22.5 137.7" class="st7"/>
			<text x="9.75" y="142.65" class="st8" v:langID="1033"><v:paragraph v:horizAlign="1"/><v:tabList/>-</text>		</g>
		<g id="shape261-149" v:mID="261" v:groupContext="shape" transform="translate(94.5714,-57.8246)">
			<title>Sheet.261</title>
			<desc>-</desc>
			<v:textBlock v:margins="rect(0,0,0,0)"/>
			<v:textRect cx="11.25" cy="139.95" width="22.5" height="4.5"/>
			<path d="M22.5 137.7 L0 137.7 L0 142.2 L22.5 142.2 L22.5 137.7" class="st7"/>
			<text x="9.75" y="142.65" class="st8" v:langID="1033"><v:paragraph v:horizAlign="1"/><v:tabList/>-</text>		</g>
		<g id="shape262-153" v:mID="262" v:groupContext="shape" transform="translate(132.821,-57.8246)">
			<title>Sheet.262</title>
			<desc>-</desc>
			<v:textBlock v:margins="rect(0,0,0,0)"/>
			<v:textRect cx="11.25" cy="139.95" width="22.5" height="4.5"/>
			<path d="M22.5 137.7 L0 137.7 L0 142.2 L22.5 142.2 L22.5 137.7" class="st7"/>
			<text x="9.75" y="142.65" class="st8" v:langID="1033"><v:paragraph v:horizAlign="1"/><v:tabList/>-</text>		</g>
		<g id="shape263-157" v:mID="263" v:groupContext="shape" transform="translate(112.571,-53.3246)">
			<title>Sheet.263</title>
			<desc>-</desc>
			<v:textBlock v:margins="rect(0,0,0,0)"/>
			<v:textRect cx="11.25" cy="139.95" width="22.5" height="4.5"/>
			<path d="M22.5 137.7 L0 137.7 L0 142.2 L22.5 142.2 L22.5 137.7" class="st7"/>
			<text x="9.75" y="142.65" class="st8" v:langID="1033"><v:paragraph v:horizAlign="1"/><v:tabList/>-</text>		</g>
		<g id="shape264-161" v:mID="264" v:groupContext="shape" transform="translate(132.821,-66.8246)">
			<title>Sheet.264</title>
			<desc>+</desc>
			<v:textBlock v:margins="rect(0,0,0,0)"/>
			<v:textRect cx="11.25" cy="139.95" width="22.5" height="4.5"/>
			<path d="M22.5 137.7 L0 137.7 L0 142.2 L22.5 142.2 L22.5 137.7" class="st7"/>
			<text x="8.62" y="142.65" class="st8" v:langID="1033"><v:paragraph v:horizAlign="1"/><v:tabList/>+</text>		</g>
		<g id="shape265-165" v:mID="265" v:groupContext="shape" transform="translate(123.821,-69.0746)">
			<title>Sheet.265</title>
			<desc>+</desc>
			<v:textBlock v:margins="rect(0,0,0,0)"/>
			<v:textRect cx="11.25" cy="139.95" width="22.5" height="4.5"/>
			<path d="M22.5 137.7 L0 137.7 L0 142.2 L22.5 142.2 L22.5 137.7" class="st7"/>
			<text x="8.62" y="142.65" class="st8" v:langID="1033"><v:paragraph v:horizAlign="1"/><v:tabList/>+</text>		</g>
		<g id="shape266-169" v:mID="266" v:groupContext="shape" transform="translate(119.321,-66.8246)">
			<title>Sheet.266</title>
			<desc>+</desc>
			<v:textBlock v:margins="rect(0,0,0,0)"/>
			<v:textRect cx="11.25" cy="139.95" width="22.5" height="4.5"/>
			<path d="M22.5 137.7 L0 137.7 L0 142.2 L22.5 142.2 L22.5 137.7" class="st7"/>
			<text x="8.62" y="142.65" class="st8" v:langID="1033"><v:paragraph v:horizAlign="1"/><v:tabList/>+</text>		</g>
		<g id="shape267-173" v:mID="267" v:groupContext="shape" transform="translate(112.571,-69.0746)">
			<title>Sheet.267</title>
			<desc>+</desc>
			<v:textBlock v:margins="rect(0,0,0,0)"/>
			<v:textRect cx="11.25" cy="139.95" width="22.5" height="4.5"/>
			<path d="M22.5 137.7 L0 137.7 L0 142.2 L22.5 142.2 L22.5 137.7" class="st7"/>
			<text x="8.62" y="142.65" class="st8" v:langID="1033"><v:paragraph v:horizAlign="1"/><v:tabList/>+</text>		</g>
		<g id="shape268-177" v:mID="268" v:groupContext="shape" transform="translate(103.571,-66.8246)">
			<title>Sheet.268</title>
			<desc>+</desc>
			<v:textBlock v:margins="rect(0,0,0,0)"/>
			<v:textRect cx="11.25" cy="139.95" width="22.5" height="4.5"/>
			<path d="M22.5 137.7 L0 137.7 L0 142.2 L22.5 142.2 L22.5 137.7" class="st7"/>
			<text x="8.62" y="142.65" class="st8" v:langID="1033"><v:paragraph v:horizAlign="1"/><v:tabList/>+</text>		</g>
		<g id="shape269-181" v:mID="269" v:groupContext="shape" transform="translate(58.5714,-127.575)">
			<title>Sheet.269</title>
			<desc>nFET is ON</desc>
			<v:textBlock v:margins="rect(4,4,4,4)" v:tabSpace="42.5197"/>
			<v:textRect cx="33.75" cy="137.7" width="67.5" height="9"/>
			<rect x="0" y="133.2" width="67.5" height="9" class="st15"/>
			<text x="4" y="140.7" class="st18" v:langID="1033"><v:paragraph/><v:tabList/>nFET is ON</text>		</g>
		<g id="shape270-184" v:mID="270" v:groupContext="shape" v:layerMember="0"
				transform="translate(230.812,-80.909) rotate(50.1944)">
			<title>Line-curve connector.270</title>
			<v:userDefs>
				<v:ud v:nameU="AntiScale" v:val="VT0(1):26"/>
				<v:ud v:nameU="Scale" v:val="VT0(1):26"/>
				<v:ud v:nameU="visVersion" v:val="VT0(11):26"/>
			</v:userDefs>
			<path d="M0 142.2 L3.19 139.95 L6.28 138.6 L9.27 138.17 L12.16 138.63 L12.46 138.83" class="st10"/>
		</g>
		<g id="shape200-189" v:mID="200" v:groupContext="shape" transform="translate(285.821,-35.3246)">
			<title>Rectangle.200</title>
			<rect x="0" y="115.2" width="184.5" height="27" class="st1"/>
		</g>
		<g id="shape201-192" v:mID="201" v:groupContext="shape" transform="translate(411.821,-44.3246)">
			<title>Sheet.201</title>
			<path d="M-0 124.2 A18 18 -180 0 0 18 142.2 A18 18 -180 0 0 36 124.2 L0 124.2 Z" class="st2"/>
		</g>
		<g id="shape202-194" v:mID="202" v:groupContext="shape" transform="translate(330.821,-44.3246)">
			<title>Sheet.202</title>
			<desc>-</desc>
			<v:textBlock v:margins="rect(4,4,4,4)"/>
			<v:textRect cx="18" cy="133.2" width="36" height="18"/>
			<path d="M-0 124.2 A18 18 -180 0 0 18 142.2 A18 18 -180 0 0 36 124.2 L0 124.2 Z" class="st2"/>
			<text x="16.67" y="135.6" class="st3" v:langID="1033"><v:paragraph v:horizAlign="1"/><v:tabList/>-</text>		</g>
		<g id="shape203-197" v:mID="203" v:groupContext="shape" transform="translate(366.821,-62.3246)">
			<title>Rectangle.203</title>
			<rect x="0" y="139.387" width="45" height="2.8125" class="st4"/>
		</g>
		<g id="shape204-199" v:mID="204" v:groupContext="shape" transform="translate(366.821,-64.2934)">
			<title>Rectangle.204</title>
			<rect x="0" y="130.668" width="45" height="11.5313" class="st5"/>
		</g>
		<g id="shape205-201" v:mID="205" v:groupContext="shape" transform="translate(425.321,-62.3246)">
			<title>Rectangle.205</title>
			<rect x="0" y="137.137" width="40.5" height="5.0625" class="st6"/>
		</g>
		<g id="shape206-203" v:mID="206" v:groupContext="shape" transform="translate(299.321,-62.3246)">
			<title>Rectangle.206</title>
			<rect x="0" y="137.137" width="54" height="5.0625" class="st6"/>
		</g>
		<g id="shape207-205" v:mID="207" v:groupContext="shape" transform="translate(326.321,-53.3246)">
			<title>Sheet.207</title>
			<desc>-</desc>
			<v:textBlock v:margins="rect(0,0,0,0)"/>
			<v:textRect cx="11.25" cy="139.95" width="22.5" height="4.5"/>
			<path d="M22.5 137.7 L0 137.7 L0 142.2 L22.5 142.2 L22.5 137.7" class="st7"/>
			<text x="9.75" y="142.65" class="st8" v:langID="1033"><v:paragraph v:horizAlign="1"/><v:tabList/>-</text>		</g>
		<g id="shape208-209" v:mID="208" v:groupContext="shape" transform="translate(333.071,-46.5746)">
			<title>Sheet.208</title>
			<desc>-</desc>
			<v:textBlock v:margins="rect(0,0,0,0)"/>
			<v:textRect cx="11.25" cy="139.95" width="22.5" height="4.5"/>
			<path d="M22.5 137.7 L0 137.7 L0 142.2 L22.5 142.2 L22.5 137.7" class="st7"/>
			<text x="9.75" y="142.65" class="st8" v:langID="1033"><v:paragraph v:horizAlign="1"/><v:tabList/>-</text>		</g>
		<g id="shape209-213" v:mID="209" v:groupContext="shape" transform="translate(344.321,-55.5746)">
			<title>Sheet.209</title>
			<desc>-</desc>
			<v:textBlock v:margins="rect(0,0,0,0)"/>
			<v:textRect cx="11.25" cy="139.95" width="22.5" height="4.5"/>
			<path d="M22.5 137.7 L0 137.7 L0 142.2 L22.5 142.2 L22.5 137.7" class="st7"/>
			<text x="9.75" y="142.65" class="st8" v:langID="1033"><v:paragraph v:horizAlign="1"/><v:tabList/>-</text>		</g>
		<g id="shape210-217" v:mID="210" v:groupContext="shape" transform="translate(346.571,-51.0746)">
			<title>Sheet.210</title>
			<desc>-</desc>
			<v:textBlock v:margins="rect(0,0,0,0)"/>
			<v:textRect cx="11.25" cy="139.95" width="22.5" height="4.5"/>
			<path d="M22.5 137.7 L0 137.7 L0 142.2 L22.5 142.2 L22.5 137.7" class="st7"/>
			<text x="9.75" y="142.65" class="st8" v:langID="1033"><v:paragraph v:horizAlign="1"/><v:tabList/>-</text>		</g>
		<g id="shape211-221" v:mID="211" v:groupContext="shape" transform="translate(331.946,-55.5746)">
			<title>Sheet.211</title>
			<desc>-</desc>
			<v:textBlock v:margins="rect(0,0,0,0)"/>
			<v:textRect cx="11.25" cy="139.95" width="22.5" height="4.5"/>
			<path d="M22.5 137.7 L0 137.7 L0 142.2 L22.5 142.2 L22.5 137.7" class="st7"/>
			<text x="9.75" y="142.65" class="st8" v:langID="1033"><v:paragraph v:horizAlign="1"/><v:tabList/>-</text>		</g>
		<g id="shape212-225" v:mID="212" v:groupContext="shape" transform="translate(407.321,-55.5746)">
			<title>Sheet.212</title>
			<desc>-</desc>
			<v:textBlock v:margins="rect(0,0,0,0)"/>
			<v:textRect cx="11.25" cy="139.95" width="22.5" height="4.5"/>
			<path d="M22.5 137.7 L0 137.7 L0 142.2 L22.5 142.2 L22.5 137.7" class="st7"/>
			<text x="9.75" y="142.65" class="st8" v:langID="1033"><v:paragraph v:horizAlign="1"/><v:tabList/>-</text>		</g>
		<g id="shape213-229" v:mID="213" v:groupContext="shape" transform="translate(411.821,-49.9496)">
			<title>Sheet.213</title>
			<desc>-</desc>
			<v:textBlock v:margins="rect(0,0,0,0)"/>
			<v:textRect cx="11.25" cy="139.95" width="22.5" height="4.5"/>
			<path d="M22.5 137.7 L0 137.7 L0 142.2 L22.5 142.2 L22.5 137.7" class="st7"/>
			<text x="9.75" y="142.65" class="st8" v:langID="1033"><v:paragraph v:horizAlign="1"/><v:tabList/>-</text>		</g>
		<g id="shape214-233" v:mID="214" v:groupContext="shape" transform="translate(418.571,-54.4496)">
			<title>Sheet.214</title>
			<desc>-</desc>
			<v:textBlock v:margins="rect(0,0,0,0)"/>
			<v:textRect cx="11.25" cy="139.95" width="22.5" height="4.5"/>
			<path d="M22.5 137.7 L0 137.7 L0 142.2 L22.5 142.2 L22.5 137.7" class="st7"/>
			<text x="9.75" y="142.65" class="st8" v:langID="1033"><v:paragraph v:horizAlign="1"/><v:tabList/>-</text>		</g>
		<g id="shape215-237" v:mID="215" v:groupContext="shape" transform="translate(428.696,-56.6996)">
			<title>Sheet.215</title>
			<desc>-</desc>
			<v:textBlock v:margins="rect(0,0,0,0)"/>
			<v:textRect cx="11.25" cy="139.95" width="22.5" height="4.5"/>
			<path d="M22.5 137.7 L0 137.7 L0 142.2 L22.5 142.2 L22.5 137.7" class="st7"/>
			<text x="9.75" y="142.65" class="st8" v:langID="1033"><v:paragraph v:horizAlign="1"/><v:tabList/>-</text>		</g>
		<g id="shape216-241" v:mID="216" v:groupContext="shape" transform="translate(425.321,-48.8246)">
			<title>Sheet.216</title>
			<desc>-</desc>
			<v:textBlock v:margins="rect(0,0,0,0)"/>
			<v:textRect cx="11.25" cy="139.95" width="22.5" height="4.5"/>
			<path d="M22.5 137.7 L0 137.7 L0 142.2 L22.5 142.2 L22.5 137.7" class="st7"/>
			<text x="9.75" y="142.65" class="st8" v:langID="1033"><v:paragraph v:horizAlign="1"/><v:tabList/>-</text>		</g>
		<g id="shape217-245" v:mID="217" v:groupContext="shape" transform="translate(276.821,-8.32462)">
			<title>Sheet.217</title>
			<desc>With the gate held at GND, negative charges accumulate on the...</desc>
			<v:textBlock v:margins="rect(0,0,0,0)"/>
			<v:textRect cx="103.5" cy="134.325" width="207" height="15.75"/>
			<path d="M207 126.45 L0 126.45 L0 142.2 L207 142.2 L207 126.45" class="st7"/>
			<text x="14.2" y="126.22" class="st8" v:langID="1033"><v:paragraph v:horizAlign="1"/><v:tabList/>With the gate held at GND, negative charges <tspan
						x="2.44" dy="1.2em" class="st9">accumulate on the gate and draw positive particles </tspan><tspan x="13.95"
						dy="1.2em" class="st9">into the channel forming back</tspan>-to-back diodes</text>		</g>
		<g id="shape218-251" v:mID="218" v:groupContext="shape" transform="translate(384.821,-78.0746)">
			<title>Sheet.218</title>
			<desc>gate</desc>
			<v:textBlock v:margins="rect(0,0,0,0)"/>
			<v:textRect cx="22.5" cy="137.7" width="45" height="9"/>
			<path d="M45 133.2 L0 133.2 L0 142.2 L45 142.2 L45 133.2" class="st7"/>
			<text x="13.74" y="140.4" class="st8" v:langID="1033"><v:paragraph v:horizAlign="1"/><v:tabList/>gate</text>		</g>
		<g id="shape219-255" v:mID="219" v:groupContext="shape" transform="translate(297.071,-69.0746)">
			<title>Sheet.219</title>
			<desc>source</desc>
			<v:textBlock v:margins="rect(0,0,0,0)"/>
			<v:textRect cx="31.5" cy="137.7" width="63" height="9"/>
			<path d="M63 133.2 L0 133.2 L0 142.2 L63 142.2 L63 133.2" class="st7"/>
			<text x="17.99" y="140.4" class="st8" v:langID="1033"><v:paragraph v:horizAlign="1"/><v:tabList/>source</text>		</g>
		<g id="shape220-259" v:mID="220" v:groupContext="shape" transform="translate(411.821,-71.3246)">
			<title>Sheet.220</title>
			<desc>drain</desc>
			<v:textBlock v:margins="rect(0,0,0,0)"/>
			<v:textRect cx="31.5" cy="137.7" width="63" height="9"/>
			<path d="M63 133.2 L0 133.2 L0 142.2 L63 142.2 L63 133.2" class="st7"/>
			<text x="21.49" y="140.4" class="st8" v:langID="1033"><v:paragraph v:horizAlign="1"/><v:tabList/>drain</text>		</g>
		<g id="shape221-263" v:mID="221" v:groupContext="shape" transform="translate(289.196,-80.3246)">
			<title>Sheet.221</title>
			<desc>To GND</desc>
			<v:textBlock v:margins="rect(0,0,0,0)"/>
			<v:textRect cx="10.6875" cy="137.7" width="21.38" height="9"/>
			<path d="M21.37 133.2 L0 133.2 L0 142.2 L21.37 142.2 L21.37 133.2" class="st7"/>
			<text x="0" y="135" class="st8" v:langID="1033"><v:paragraph/><v:tabList/>To<v:newlineChar/><tspan x="0" dy="1.2em"
						class="st9">GND</tspan></text>		</g>
		<g id="shape222-268" v:mID="222" v:groupContext="shape" transform="translate(285.821,-62.3246)">
			<title>Rectangle.222</title>
			<rect x="0" y="133.2" width="18" height="9" class="st6"/>
		</g>
		<g id="shape223-270" v:mID="223" v:groupContext="shape" v:layerMember="0"
				transform="translate(143.622,57.375) rotate(-90) scale(-1,1)">
			<title>Line-curve connector.223</title>
			<v:userDefs>
				<v:ud v:nameU="AntiScale" v:val="VT0(1):26"/>
				<v:ud v:nameU="Scale" v:val="VT0(1):26"/>
				<v:ud v:nameU="visVersion" v:val="VT0(11):26"/>
			</v:userDefs>
			<path d="M0 142.2 L3.25 138.6 L6.3 136.26 L9.16 135.2 L11.83 135.41 L14.3 136.88 L14.5 137.18" class="st10"/>
		</g>
		<g id="shape224-275" v:mID="224" v:groupContext="shape" transform="translate(389.321,-75.8246)">
			<title>Sheet.224</title>
			<path d="M0 142.2 L0 119.7" class="st12"/>
		</g>
		<g id="shape225-278" v:mID="225" v:groupContext="shape" transform="translate(391.571,-98.3246) scale(-1,1)">
			<title>Circle.225</title>
			<path d="M0 139.95 A2.25 2.25 0 0 1 4.5 139.95 A2.25 2.25 0 1 1 0 139.95 Z" class="st13"/>
		</g>
		<g id="shape226-280" v:mID="226" v:groupContext="shape" transform="translate(427.571,163.575) rotate(180)">
			<title>Sheet.226</title>
			<path d="M0 142.2 L13.5 142.2" class="st14"/>
		</g>
		<g id="shape227-283" v:mID="227" v:groupContext="shape" transform="translate(406.241,-123.075)">
			<title>Sheet.227</title>
			<desc>Vdd</desc>
			<v:textBlock v:margins="rect(4,4,4,4)" v:tabSpace="42.5197"/>
			<v:textRect cx="16.83" cy="137.7" width="33.66" height="9"/>
			<rect x="0" y="133.2" width="33.66" height="9" class="st15"/>
			<text x="4" y="140.7" class="st16" v:langID="1033"><v:paragraph/><v:tabList/>Vdd</text>		</g>
		<g id="shape228-286" v:mID="228" v:groupContext="shape" transform="translate(353.321,-107.325)">
			<title>Sheet.228</title>
			<path d="M0 142.2 L9 142.2" class="st14"/>
		</g>
		<g id="shape229-289" v:mID="229" v:groupContext="shape" transform="translate(239.504,120.503) rotate(-123.69)">
			<title>Sheet.229</title>
			<path d="M0 142.2 L8.11 142.2" class="st14"/>
		</g>
		<g id="shape230-292" v:mID="230" v:groupContext="shape" transform="translate(239.504,-37.2532) rotate(-56.3099)">
			<title>Sheet.230</title>
			<path d="M0 142.2 L8.11 142.2" class="st14"/>
		</g>
		<g id="shape231-295" v:mID="231" v:groupContext="shape" transform="translate(324.071,-98.3246)">
			<title>Sheet.231</title>
			<desc>GND</desc>
			<v:textBlock v:margins="rect(4,4,4,4)" v:tabSpace="42.5197"/>
			<v:textRect cx="16.875" cy="137.7" width="33.75" height="9"/>
			<rect x="0" y="133.2" width="33.75" height="9" class="st15"/>
			<text x="4" y="140.7" class="st16" v:langID="1033"><v:paragraph/><v:tabList/>GND</text>		</g>
		<g id="shape232-298" v:mID="232" v:groupContext="shape" transform="translate(215.689,34.875) rotate(-90)">
			<title>Sheet.232</title>
			<path d="M0 142.2 L4.52 142.2" class="st14"/>
		</g>
		<g id="shape233-301" v:mID="233" v:groupContext="shape" transform="translate(380.321,-109.575) scale(-1,1)">
			<title>Circle.233</title>
			<path d="M0 139.95 A2.25 2.25 0 0 1 4.5 139.95 A2.25 2.25 0 1 1 0 139.95 Z" class="st13"/>
		</g>
		<g id="shape234-303" v:mID="234" v:groupContext="shape" transform="translate(357.821,-111.825)">
			<title>Sheet.234</title>
			<path d="M0 142.2 L18 142.2" class="st12"/>
		</g>
		<g id="shape235-306" v:mID="235" v:groupContext="shape" transform="translate(402.821,-111.825)">
			<title>Sheet.235</title>
			<path d="M0 142.2 L18 142.2" class="st12"/>
		</g>
		<g id="shape236-309" v:mID="236" v:groupContext="shape" transform="translate(402.821,-109.575) scale(-1,1)">
			<title>Circle.236</title>
			<path d="M0 139.95 A2.25 2.25 0 0 1 4.5 139.95 A2.25 2.25 0 1 1 0 139.95 Z" class="st13"/>
		</g>
		<g id="shape237-311" v:mID="237" v:groupContext="shape" transform="translate(420.821,-111.825)">
			<title>Sheet.237</title>
			<path d="M0 142.2 L0 133.2" class="st12"/>
		</g>
		<g id="shape238-314" v:mID="238" v:groupContext="shape" transform="translate(389.321,-102.825) scale(-1,1)">
			<title>Sheet.238</title>
			<path d="M11.25 128.7 L0 142.2" class="st12"/>
		</g>
		<g id="shape240-317" v:mID="240" v:groupContext="shape" transform="translate(398.321,-55.5746)">
			<title>Sheet.240</title>
			<desc>+</desc>
			<v:textBlock v:margins="rect(0,0,0,0)"/>
			<v:textRect cx="11.25" cy="139.95" width="22.5" height="4.5"/>
			<path d="M22.5 137.7 L0 137.7 L0 142.2 L22.5 142.2 L22.5 137.7" class="st7"/>
			<text x="8.62" y="142.65" class="st8" v:langID="1033"><v:paragraph v:horizAlign="1"/><v:tabList/>+</text>		</g>
		<g id="shape241-321" v:mID="241" v:groupContext="shape" transform="translate(380.321,-55.5746)">
			<title>Sheet.241</title>
			<desc>+</desc>
			<v:textBlock v:margins="rect(0,0,0,0)"/>
			<v:textRect cx="11.25" cy="139.95" width="22.5" height="4.5"/>
			<path d="M22.5 137.7 L0 137.7 L0 142.2 L22.5 142.2 L22.5 137.7" class="st7"/>
			<text x="8.62" y="142.65" class="st8" v:langID="1033"><v:paragraph v:horizAlign="1"/><v:tabList/>+</text>		</g>
		<g id="shape272-325" v:mID="272" v:groupContext="shape" transform="translate(362.321,-55.5746)">
			<title>Sheet.272</title>
			<desc>+</desc>
			<v:textBlock v:margins="rect(0,0,0,0)"/>
			<v:textRect cx="11.25" cy="139.95" width="22.5" height="4.5"/>
			<path d="M22.5 137.7 L0 137.7 L0 142.2 L22.5 142.2 L22.5 137.7" class="st7"/>
			<text x="8.62" y="142.65" class="st8" v:langID="1033"><v:paragraph v:horizAlign="1"/><v:tabList/>+</text>		</g>
		<g id="shape274-329" v:mID="274" v:groupContext="shape" transform="translate(391.571,-53.3246)">
			<title>Sheet.274</title>
			<desc>+</desc>
			<v:textBlock v:margins="rect(0,0,0,0)"/>
			<v:textRect cx="11.25" cy="139.95" width="22.5" height="4.5"/>
			<path d="M22.5 137.7 L0 137.7 L0 142.2 L22.5 142.2 L22.5 137.7" class="st7"/>
			<text x="8.62" y="142.65" class="st8" v:langID="1033"><v:paragraph v:horizAlign="1"/><v:tabList/>+</text>		</g>
		<g id="shape275-333" v:mID="275" v:groupContext="shape" transform="translate(371.321,-53.3246)">
			<title>Sheet.275</title>
			<desc>+</desc>
			<v:textBlock v:margins="rect(0,0,0,0)"/>
			<v:textRect cx="11.25" cy="139.95" width="22.5" height="4.5"/>
			<path d="M22.5 137.7 L0 137.7 L0 142.2 L22.5 142.2 L22.5 137.7" class="st7"/>
			<text x="8.62" y="142.65" class="st8" v:langID="1033"><v:paragraph v:horizAlign="1"/><v:tabList/>+</text>		</g>
		<g id="shape276-337" v:mID="276" v:groupContext="shape" transform="translate(391.571,-66.8246)">
			<title>Sheet.276</title>
			<desc>-</desc>
			<v:textBlock v:margins="rect(0,0,0,0)"/>
			<v:textRect cx="11.25" cy="139.95" width="22.5" height="4.5"/>
			<path d="M22.5 137.7 L0 137.7 L0 142.2 L22.5 142.2 L22.5 137.7" class="st7"/>
			<text x="9.75" y="142.65" class="st8" v:langID="1033"><v:paragraph v:horizAlign="1"/><v:tabList/>-</text>		</g>
		<g id="shape277-341" v:mID="277" v:groupContext="shape" transform="translate(382.571,-69.0746)">
			<title>Sheet.277</title>
			<desc>-</desc>
			<v:textBlock v:margins="rect(0,0,0,0)"/>
			<v:textRect cx="11.25" cy="139.95" width="22.5" height="4.5"/>
			<path d="M22.5 137.7 L0 137.7 L0 142.2 L22.5 142.2 L22.5 137.7" class="st7"/>
			<text x="9.75" y="142.65" class="st8" v:langID="1033"><v:paragraph v:horizAlign="1"/><v:tabList/>-</text>		</g>
		<g id="shape278-345" v:mID="278" v:groupContext="shape" transform="translate(378.071,-66.8246)">
			<title>Sheet.278</title>
			<desc>-</desc>
			<v:textBlock v:margins="rect(0,0,0,0)"/>
			<v:textRect cx="11.25" cy="139.95" width="22.5" height="4.5"/>
			<path d="M22.5 137.7 L0 137.7 L0 142.2 L22.5 142.2 L22.5 137.7" class="st7"/>
			<text x="9.75" y="142.65" class="st8" v:langID="1033"><v:paragraph v:horizAlign="1"/><v:tabList/>-</text>		</g>
		<g id="shape279-349" v:mID="279" v:groupContext="shape" transform="translate(371.321,-69.0746)">
			<title>Sheet.279</title>
			<desc>-</desc>
			<v:textBlock v:margins="rect(0,0,0,0)"/>
			<v:textRect cx="11.25" cy="139.95" width="22.5" height="4.5"/>
			<path d="M22.5 137.7 L0 137.7 L0 142.2 L22.5 142.2 L22.5 137.7" class="st7"/>
			<text x="9.75" y="142.65" class="st8" v:langID="1033"><v:paragraph v:horizAlign="1"/><v:tabList/>-</text>		</g>
		<g id="shape280-353" v:mID="280" v:groupContext="shape" transform="translate(362.321,-66.8246)">
			<title>Sheet.280</title>
			<desc>-</desc>
			<v:textBlock v:margins="rect(0,0,0,0)"/>
			<v:textRect cx="11.25" cy="139.95" width="22.5" height="4.5"/>
			<path d="M22.5 137.7 L0 137.7 L0 142.2 L22.5 142.2 L22.5 137.7" class="st7"/>
			<text x="9.75" y="142.65" class="st8" v:langID="1033"><v:paragraph v:horizAlign="1"/><v:tabList/>-</text>		</g>
		<g id="shape281-357" v:mID="281" v:groupContext="shape" transform="translate(317.321,-127.575)">
			<title>Sheet.281</title>
			<desc>nFET is OFF</desc>
			<v:textBlock v:margins="rect(4,4,4,4)" v:tabSpace="42.5197"/>
			<v:textRect cx="33.75" cy="137.7" width="67.5" height="9"/>
			<rect x="0" y="133.2" width="67.5" height="9" class="st15"/>
			<text x="4" y="140.7" class="st18" v:langID="1033"><v:paragraph/><v:tabList/>nFET is OFF</text>		</g>
		<g id="shape282-360" v:mID="282" v:groupContext="shape" v:layerMember="0"
				transform="translate(489.562,-80.909) rotate(50.1944)">
			<title>Line-curve connector.282</title>
			<v:userDefs>
				<v:ud v:nameU="AntiScale" v:val="VT0(1):26"/>
				<v:ud v:nameU="Scale" v:val="VT0(1):26"/>
				<v:ud v:nameU="visVersion" v:val="VT0(11):26"/>
			</v:userDefs>
			<path d="M0 142.2 L3.19 139.95 L6.28 138.6 L9.27 138.17 L12.16 138.63 L12.46 138.83" class="st10"/>
		</g>
		<g id="shape271-365" v:mID="271" v:groupContext="shape" transform="translate(357.821,-51.0746)">
			<title>Sheet.271</title>
			<desc>+</desc>
			<v:textBlock v:margins="rect(0,0,0,0)"/>
			<v:textRect cx="11.25" cy="139.95" width="22.5" height="4.5"/>
			<path d="M22.5 137.7 L0 137.7 L0 142.2 L22.5 142.2 L22.5 137.7" class="st7"/>
			<text x="8.62" y="142.65" class="st8" v:langID="1033"><v:paragraph v:horizAlign="1"/><v:tabList/>+</text>		</g>
		<g id="shape273-369" v:mID="273" v:groupContext="shape" transform="translate(398.321,-48.8246)">
			<title>Sheet.273</title>
			<desc>+</desc>
			<v:textBlock v:margins="rect(0,0,0,0)"/>
			<v:textRect cx="11.25" cy="139.95" width="22.5" height="4.5"/>
			<path d="M22.5 137.7 L0 137.7 L0 142.2 L22.5 142.2 L22.5 137.7" class="st7"/>
			<text x="8.62" y="142.65" class="st8" v:langID="1033"><v:paragraph v:horizAlign="1"/><v:tabList/>+</text>		</g>
		<g id="group287-373" transform="translate(329.524,220.239) rotate(-160)" v:mID="287" v:groupContext="group">
			<title>Sheet.287</title>
			<g id="shape288-374" v:mID="288" v:groupContext="shape" transform="translate(6.83487,0)">
				<title>Sheet.288</title>
				<path d="M0 128.53 L0 142.2 L10.25 135.36 L0 128.53 Z" class="st19"/>
			</g>
			<g id="shape289-376" v:mID="289" v:groupContext="shape" transform="translate(6.83487,277.564) rotate(180)">
				<title>Sheet.289</title>
				<path d="M0 142.2 L6.83 142.2" class="st20"/>
			</g>
			<g id="shape290-379" v:mID="290" v:groupContext="shape" transform="translate(17.0872,-6.83487)">
				<title>Sheet.290</title>
				<path d="M0 142.2 L6.83 142.2" class="st20"/>
			</g>
			<g id="shape291-382" v:mID="291" v:groupContext="shape" transform="translate(159.287,128.53) rotate(90)">
				<title>Sheet.291</title>
				<path d="M0 142.2 L13.67 142.2" class="st20"/>
			</g>
		</g>
		<g id="group239-385" transform="translate(448.015,220.429) rotate(-20) scale(1,-1)" v:mID="239" v:groupContext="group">
			<title>Sheet.239</title>
			<g id="shape283-386" v:mID="283" v:groupContext="shape" transform="translate(6.83487,0)">
				<title>Sheet.283</title>
				<path d="M0 128.53 L0 142.2 L10.25 135.36 L0 128.53 Z" class="st19"/>
			</g>
			<g id="shape284-388" v:mID="284" v:groupContext="shape" transform="translate(6.83487,277.564) rotate(180)">
				<title>Sheet.284</title>
				<path d="M0 142.2 L6.83 142.2" class="st20"/>
			</g>
			<g id="shape285-391" v:mID="285" v:groupContext="shape" transform="translate(17.0872,-6.83487)">
				<title>Sheet.285</title>
				<path d="M0 142.2 L6.83 142.2" class="st20"/>
			</g>
			<g id="shape286-394" v:mID="286" v:groupContext="shape" transform="translate(159.287,128.53) rotate(90)">
				<title>Sheet.286</title>
				<path d="M0 142.2 L13.67 142.2" class="st20"/>
			</g>
		</g>
		<g id="shape292-397" v:mID="292" v:groupContext="shape" transform="translate(445.571,-107.325)">
			<title>Sheet.292</title>
			<desc>With nFET off, drain is not connected to GND; some other circ...</desc>
			<v:textBlock v:margins="rect(0,0,0,0)"/>
			<v:textRect cx="47.25" cy="134.325" width="94.5" height="15.75"/>
			<path d="M94.5 126.45 L0 126.45 L0 142.2 L94.5 142.2 L94.5 126.45" class="st7"/>
			<text x="2.74" y="115.42" class="st8" v:langID="1033"><v:paragraph v:horizAlign="1"/><v:tabList/>With nFET off, drain is <tspan
						x="1.47" dy="1.2em" class="st9">not connected to GND</tspan>; <tspan x="11.74" dy="1.2em" class="st9">some other circuit </tspan><tspan
						x="1.97" dy="1.2em" class="st9">connection determines </tspan><tspan x="21.48" dy="1.2em" class="st9">drain voltage</tspan></text>		</g>
		<g id="shape197-405" v:mID="197" v:groupContext="shape" transform="translate(204.821,-112.95)">
			<title>Sheet.197</title>
			<desc>With nFET on, drain is driven to GND</desc>
			<v:textBlock v:margins="rect(0,0,0,0)"/>
			<v:textRect cx="29.25" cy="134.325" width="58.5" height="15.75"/>
			<path d="M58.5 126.45 L0 126.45 L0 142.2 L58.5 142.2 L58.5 126.45" class="st7"/>
			<text x="0.49" y="126.22" class="st8" v:langID="1033"><v:paragraph v:horizAlign="1"/><v:tabList/>With nFET on, <tspan
						x="1.24" dy="1.2em" class="st9">drain is driven </tspan><tspan x="14.25" dy="1.2em" class="st9">to GND</tspan></text>		</g>
		<g id="shape198-411" v:mID="198" v:groupContext="shape" transform="translate(351.467,89.3046) rotate(110.556)">
			<title>Sheet.198</title>
			<path d="M0 142.2 L31.01 142.2" class="st21"/>
		</g>
		<g id="shape293-417" v:mID="293" v:groupContext="shape" transform="translate(590.831,142.695) rotate(126.87)">
			<title>Sheet.293</title>
			<path d="M0 142.2 L15.06 142.2" class="st21"/>
		</g>
	</g>
</svg>
